<svg xmlns="http://www.w3.org/2000/svg" viewBox="0 0 493.5 499.94"><defs><style>.cls-1,.cls-2{fill:none;}.cls-1,.cls-2,.cls-3{stroke:#000;}.cls-1{stroke-linecap:round;stroke-linejoin:round;stroke-width:0.5px;}.cls-2,.cls-3{stroke-miterlimit:10;}.cls-3{fill:#fff;}</style></defs><title>Ресурс 1</title><g id="Слой_2" data-name="Слой 2"><g id="Слой_1-2" data-name="Слой 1"><path d="M375.75,374.19a125.89,125.89,0,0,1-110.4,125q-7.5.47-15.1.46-8.61,0-17.07-.58C103.07,490.34.25,382,.25,249.69S103.21,8.9,233.43.25a124.51,124.51,0,0,0,16.32,247.94,125.92,125.92,0,0,1,126,126Z" transform="translate(0 0)"/><path class="cls-1" d="M375.75,374.19a125.89,125.89,0,0,1-110.4,125q-7.5.47-15.1.46-8.61,0-17.07-.58C103.07,490.34.25,382,.25,249.69S103.21,8.9,233.43.25a124.51,124.51,0,0,0,16.32,247.94,125.92,125.92,0,0,1,126,126Z" transform="translate(0 0)"/><path class="cls-2" d="M493,212.21v75.46H450.66a204,204,0,0,1-32.16,78.42l29.71,29.71-53.35,53.35L366.75,421a126.31,126.31,0,0,0-7.86-109.87A125,125,0,0,0,142.2,186.44,124.72,124.72,0,0,1,133,80.33a204.08,204.08,0,0,1,78.25-32V5.94h75.46V48.5a204.46,204.46,0,0,1,78.43,32.8l29.52-29.52L448,105.14l-29.69,29.68a204.25,204.25,0,0,1,32.09,77.39Z" transform="translate(0 0)"/><polyline class="cls-3" points="282.29 252.43 276.02 284.69 262.45 284.69 269.23 249.69"/><polyline points="269.23 249.69 273.49 227.69 255.57 227.69 257.85 215.69 307.11 215.69 304.74 227.69 287.1 227.69 282.29 252.43"/><polyline class="cls-3" points="226.94 245.97 221.78 272.69 235.56 272.69 233.16 284.69 192.18 284.69 194.53 272.69 208.24 272.69 213.98 242.98"/><polyline points="213.98 242.98 216.93 227.69 203.15 227.69 205.5 215.69 246.53 215.69 244.18 227.69 230.47 227.69 226.94 245.97"/></g></g></svg>